<mxfile host="app.diagrams.net" modified="2023-10-19T06:00:44.801Z" agent="Mozilla/5.0 (Macintosh; Intel Mac OS X 10_15_7) AppleWebKit/605.1.15 (KHTML, like Gecko) Version/17.0 Safari/605.1.15" version="22.0.4" etag="LoRFHHXSOYlI5Sk6_8wM" type="github">
  <diagram name="第 1 页" id="PbWVN-rDsr5_fqTNNG5A">
    <mxGraphModel>
      <root>
        <mxCell id="0" />
        <mxCell id="1" parent="0" />
      </root>
    </mxGraphModel>
  </diagram>
</mxfile>
